<?xml version="1.0" encoding="iso-8859-1"?>
<!-- Generator: Adobe Illustrator 16.0.0, SVG Export Plug-In . SVG Version: 6.00 Build 0)  -->
<!DOCTYPE svg PUBLIC "-//W3C//DTD SVG 1.1//EN" "http://www.w3.org/Graphics/SVG/1.1/DTD/svg11.dtd">
<svg version="1.1" xmlns="http://www.w3.org/2000/svg" xmlns:xlink="http://www.w3.org/1999/xlink" x="0px" y="0px" width="512px"
	 height="512px" viewBox="0 0 512 512" style="enable-background:new 0 0 512 512;" xml:space="preserve">
<g id="E493_x2C__App_x2C__complete_x2C__mac">
	<g>
		<g>
			<rect x="26" y="26" style="fill:#57606F;" width="460" height="120"/>
			<path style="fill:#80AF52;" d="M276,66c11.05,0,20,8.95,20,20s-8.95,20-20,20s-20-8.95-20-20S264.95,66,276,66z"/>
			<path style="fill:#FCD884;" d="M186,66c11.05,0,20,8.95,20,20s-8.95,20-20,20s-20-8.95-20-20S174.95,66,186,66z"/>
			<path style="fill:#E64C42;" d="M96,66c11.05,0,20,8.95,20,20s-8.95,20-20,20s-20-8.95-20-20S84.95,66,96,66z"/>
			<rect x="26" y="146" style="fill:#ECF0F1;" width="460" height="340"/>
			<circle style="fill:#80AF52;" cx="256" cy="316" r="110"/>
			<path style="fill:#313A52;" d="M246,376c-2.635,0-5.184-1.042-7.071-2.929l-30-30c-3.905-3.905-3.905-10.237,0-14.143
				c3.905-3.904,10.237-3.904,14.143,0l20.943,20.943l53.41-89.017c2.841-4.736,8.984-6.272,13.72-3.431
				c4.736,2.842,6.271,8.984,3.431,13.72l-60,100c-1.584,2.641-4.296,4.404-7.353,4.78C246.814,375.976,246.405,376,246,376z"/>
		</g>
	</g>
</g>
<g id="Layer_1">
</g>
</svg>
